<?xml version="1.0" encoding="UTF-8"?>
<svg version="1.1" xmlns="http://www.w3.org/2000/svg" width="171" height="168">
<path d="M0 0 C56.43 0 112.86 0 171 0 C171 55.44 171 110.88 171 168 C114.57 168 58.14 168 0 168 C0 112.56 0 57.12 0 0 Z " fill="#202020" transform="translate(0,0)"/>
<path d="M0 0 C1.72338867 2.17138672 1.72338867 2.17138672 3.41796875 5.1796875 C4.03220703 6.25347656 4.64644531 7.32726562 5.27929688 8.43359375 C6.22385742 10.13708984 6.22385742 10.13708984 7.1875 11.875 C7.82880859 13.00292969 8.47011719 14.13085938 9.13085938 15.29296875 C16.04124137 27.47917565 16.04124137 27.47917565 15 34 C13.48959074 37.75243434 11.5052542 41.15491906 9.4375 44.625 C8.92380859 45.54023437 8.41011719 46.45546875 7.88085938 47.3984375 C4.78433779 52.72214666 1.62192472 58.08746235 -4 61 C-7.20129124 61.64967894 -10.18905771 61.57917284 -13.4375 61.375 C-14.67790039 61.33439453 -14.67790039 61.33439453 -15.94335938 61.29296875 C-17.96338557 61.22291004 -19.98205121 61.11531136 -22 61 C-22 63.31 -22 65.62 -22 68 C-26.05704092 67.50321948 -27.73205248 66.70466048 -30.25 63.5 C-33.63600965 59.32741731 -37.38328196 55.76701442 -41.375 52.17578125 C-43 50 -43 50 -42.87109375 47.296875 C-41.76635295 44.38392617 -40.75255598 44.25116181 -38 43 C-36.90833725 41.06669397 -36.90833725 41.06669397 -36 39 C-34.5 37.25 -34.5 37.25 -33 36 C-32.34 36 -31.68 36 -31 36 C-30.34 34.68 -29.68 33.36 -29 32 C-28.34 32 -27.68 32 -27 32 C-26.34 30.68 -25.68 29.36 -25 28 C-21.04 28 -17.08 28 -13 28 C-13.956581 26.22821947 -14.91532988 24.45760924 -15.875 22.6875 C-16.67550781 21.20830078 -16.67550781 21.20830078 -17.4921875 19.69921875 C-19.00722126 16.90413542 -19.00722126 16.90413542 -21 14 C-20.79894509 11.43662717 -20.39866293 10.36014879 -18.48120117 8.62792969 C-17.52177612 8.03093262 -17.52177612 8.03093262 -16.54296875 7.421875 C-15.84236328 6.98359375 -15.14175781 6.5453125 -14.41992188 6.09375 C-13.68322266 5.6503125 -12.94652344 5.206875 -12.1875 4.75 C-11.46240234 4.29109375 -10.73730469 3.8321875 -9.99023438 3.359375 C-4.52625093 0 -4.52625093 0 0 0 Z " fill="#062B8C" transform="translate(134,63)"/>
<path d="M0 0 C1.77697266 -0.01836914 1.77697266 -0.01836914 3.58984375 -0.03710938 C4.73324219 -0.03904297 5.87664062 -0.04097656 7.0546875 -0.04296875 C8.09866699 -0.04707764 9.14264648 -0.05118652 10.21826172 -0.05541992 C14.8833994 0.33445174 17.39329866 1.4192136 20.625 4.8125 C28.125 14.47916667 28.125 14.47916667 28.125 18.1875 C29.053125 17.6925 29.98125 17.1975 30.9375 16.6875 C34.125 15.1875 34.125 15.1875 37.125 15.1875 C37.59659928 21.15774625 35.86894546 26.34772681 34.1875 32 C33.90970703 32.96615234 33.63191406 33.93230469 33.34570312 34.92773438 C31.2710891 42.0414109 31.2710891 42.0414109 30.125 43.1875 C20.57905121 42.73293101 11.39717405 40.3590876 2.125 38.1875 C2.455 36.5375 2.785 34.8875 3.125 33.1875 C5.6 32.6925 5.6 32.6925 8.125 32.1875 C5.65 27.2375 5.65 27.2375 3.125 22.1875 C2.135 22.1875 1.145 22.1875 0.125 22.1875 C-1.29150583 23.82663314 -1.29150583 23.82663314 -2.50390625 26.01953125 C-2.98150391 26.81810547 -3.45910156 27.61667969 -3.95117188 28.43945312 C-4.44166016 29.28443359 -4.93214844 30.12941406 -5.4375 31 C-6.41774082 32.65247898 -7.39820084 34.30482795 -8.37890625 35.95703125 C-8.81017822 36.69542236 -9.2414502 37.43381348 -9.68579102 38.19458008 C-10.69774623 39.89045164 -11.77955015 41.54432523 -12.875 43.1875 C-17.90323562 42.69229498 -21.45688834 40.95687711 -25.625 38.25 C-26.20121094 37.88970703 -26.77742188 37.52941406 -27.37109375 37.15820312 C-29.76297206 35.64446196 -31.86771197 34.19478803 -33.875 32.1875 C-33.33420526 26.00302681 -29.5687558 20.83732017 -26.5625 15.5625 C-25.98048828 14.51320313 -25.39847656 13.46390625 -24.79882812 12.3828125 C-23.94514648 10.87460937 -23.94514648 10.87460937 -23.07421875 9.3359375 C-22.55690186 8.41989746 -22.03958496 7.50385742 -21.5065918 6.56005859 C-16.176926 -1.19000757 -8.4884031 0.00458833 0 0 Z " fill="#062E8B" transform="translate(91.875,19.8125)"/>
<path d="M0 0 C0.98697159 3.35191948 1.96314756 6.70689263 2.9375 10.0625 C3.35418945 11.47692383 3.35418945 11.47692383 3.77929688 12.91992188 C5.23385919 17.94955302 6.42945832 22.79290445 7 28 C3.28111761 27.49287967 0.26545761 26.88391785 -3 25 C-3.41378906 26.07314453 -3.41378906 26.07314453 -3.8359375 27.16796875 C-4.98248522 29.95738855 -6.26227115 32.62290358 -7.625 35.3125 C-8.07101563 36.19550781 -8.51703125 37.07851562 -8.9765625 37.98828125 C-9.31429687 38.65214844 -9.65203125 39.31601563 -10 40 C-9.12674072 39.99476318 -8.25348145 39.98952637 -7.35375977 39.98413086 C-4.12410727 39.96712249 -0.89447755 39.95456631 2.33520508 39.94506836 C3.73495228 39.9400292 5.1346942 39.93319784 6.53442383 39.92456055 C8.54245777 39.9124768 10.55052957 39.90730193 12.55859375 39.90234375 C14.37315063 39.89448853 14.37315063 39.89448853 16.22436523 39.88647461 C19 40 19 40 20 41 C20.09880797 42.47652664 20.13079245 43.95767236 20.1328125 45.4375 C20.13474609 46.77941406 20.13474609 46.77941406 20.13671875 48.1484375 C20.13285156 49.08945313 20.12898438 50.03046875 20.125 51 C20.13080078 52.41152344 20.13080078 52.41152344 20.13671875 53.8515625 C20.13542969 54.74617188 20.13414063 55.64078125 20.1328125 56.5625 C20.13168457 57.38878906 20.13055664 58.21507812 20.12939453 59.06640625 C20 61 20 61 19 62 C14.51335881 62.2672375 10.02099342 62.27131541 5.52734375 62.29516602 C3.27281146 62.31232637 1.01976591 62.35618694 -1.234375 62.40039062 C-2.67186421 62.41052212 -4.10936591 62.41903679 -5.546875 62.42578125 C-6.85495117 62.44036377 -8.16302734 62.45494629 -9.51074219 62.4699707 C-13.55699251 61.92497827 -15.13351348 60.8412816 -18 58 C-19.66015625 55.66796875 -19.66015625 55.66796875 -21.0625 53.1875 C-21.56136719 52.31480469 -22.06023438 51.44210938 -22.57421875 50.54296875 C-23.04472656 49.70378906 -23.51523437 48.86460938 -24 48 C-24.62841797 46.94232422 -24.62841797 46.94232422 -25.26953125 45.86328125 C-28 41.2610424 -28 41.2610424 -28 39 C-28.66 39 -29.32 39 -30 39 C-31.67038589 33.98884233 -32.21953733 28.54141347 -29.8828125 23.671875 C-28.99458286 22.31694843 -28.06711731 20.98652554 -27.09375 19.69140625 C-25.72849499 17.91584279 -25.72849499 17.91584279 -26 15 C-28.44496043 13.28288757 -28.44496043 13.28288757 -31 12 C-30 9 -30 9 -27.88623047 7.83325195 C-24.88682193 6.64718712 -21.88776979 5.46433333 -18.875 4.3125 C-17.32425781 3.68891602 -17.32425781 3.68891602 -15.7421875 3.05273438 C-10.28079825 0.9315698 -5.87106978 -0.57380144 0 0 Z " fill="#0E318D" transform="translate(66,62)"/>
<path d="M0 0 C2.35953346 3.00783595 4.22536202 6.34783668 6.1875 9.625 C6.74630859 10.51574219 7.30511719 11.40648438 7.88085938 12.32421875 C13.23746136 21.20610579 13.23746136 21.20610579 12 27 C9.42854774 30.2216876 7.97473873 31.82367793 3.86206055 32.56762695 C2.71519775 32.54144287 1.56833496 32.51525879 0.38671875 32.48828125 C-0.86044922 32.47216797 -2.10761719 32.45605469 -3.39257812 32.43945312 C-4.68615234 32.39755859 -5.97972656 32.35566406 -7.3125 32.3125 C-8.62541016 32.28994141 -9.93832031 32.26738281 -11.29101562 32.24414062 C-14.5285013 32.18527725 -17.76367 32.10308804 -21 32 C-21 29.36 -21 26.72 -21 24 C-11.26995516 23.23318386 -11.26995516 23.23318386 -8.15625 25.11328125 C-6.8125 26.5 -6.8125 26.5 -5 29 C-5.5537478 23.89545207 -8.02592796 20.03424443 -10.5625 15.6875 C-10.98724609 14.94693359 -11.41199219 14.20636719 -11.84960938 13.44335938 C-12.89351653 11.62531882 -13.94592192 9.81216252 -15 8 C-5.49497487 -1.83165829 -5.49497487 -1.83165829 0 0 Z " fill="#E8ECF2" transform="translate(133,69)"/>
<path d="M0 0 C0.67548578 2.05962852 1.34004312 4.12284322 2 6.1875 C2.37125 7.33605469 2.7425 8.48460938 3.125 9.66796875 C3.90630553 12.64320812 4.18363306 14.95283896 4 18 C2.35 17.67 0.7 17.34 -1 17 C-5.62 25.25 -10.24 33.5 -15 42 C-15.99 42 -16.98 42 -18 42 C-19.01855231 40.32363266 -20.01404801 38.63324613 -21 36.9375 C-21.556875 35.99777344 -22.11375 35.05804688 -22.6875 34.08984375 C-24.26990906 30.36458909 -24.45928689 28.01876028 -24 24 C-22.46875 20.54296875 -22.46875 20.54296875 -20.5 17.1875 C-17.95413309 13.32695487 -17.95413309 13.32695487 -17 9 C-17.99 8.34 -18.98 7.68 -20 7 C-18.10435574 6.20788071 -16.20847629 5.41632424 -14.3125 4.625 C-13.25675781 4.18414062 -12.20101562 3.74328125 -11.11328125 3.2890625 C-10.08589844 2.86367187 -9.05851562 2.43828125 -8 2 C-7.10667969 1.61585937 -6.21335937 1.23171875 -5.29296875 0.8359375 C-3 0 -3 0 0 0 Z " fill="#EFF3F7" transform="translate(63,66)"/>
<path d="M0 0 C2.37570543 -0.0816082 4.74855841 -0.14077222 7.125 -0.1875 C7.79015625 -0.21263672 8.4553125 -0.23777344 9.140625 -0.26367188 C13.89775336 -0.33362964 17.0900191 0.26246033 21 3 C22.55765275 5.39422213 23.8313241 7.58039846 25.0625 10.125 C26.25586532 12.59046815 27.47130024 14.69664121 29 17 C31.61911531 18.03513984 31.61911531 18.03513984 34 18 C33.36934845 23.7809725 32.34844868 29.3443706 31 35 C24.91766294 34.32418477 18.98685848 33.26361972 13 32 C13 31.34 13 30.68 13 30 C13.66 29.67 14.32 29.34 15 29 C14.42520879 25.04786967 13.23690009 22.37875017 11.09375 19.0234375 C10.51496094 18.105625 9.93617187 17.1878125 9.33984375 16.2421875 C8.42912109 14.82292969 8.42912109 14.82292969 7.5 13.375 C6.29938975 11.4886909 5.10135146 9.60074159 3.90625 7.7109375 C3.10670898 6.46256104 3.10670898 6.46256104 2.29101562 5.18896484 C1 3 1 3 0 0 Z " fill="#1F2024" transform="translate(89,24)"/>
<path d="M0 0 C0 1.98 0 3.96 0 6 C10.23 6 20.46 6 31 6 C29.44719017 9.10561967 27.85668593 12.1192239 26.125 15.125 C25.63257813 15.99382812 25.14015625 16.86265625 24.6328125 17.7578125 C22.83007516 20.23334177 21.80196736 20.88021622 19 22 C16.80175781 22.22705078 16.80175781 22.22705078 14.453125 22.1953125 C13.18662109 22.18564453 13.18662109 22.18564453 11.89453125 22.17578125 C11.02183594 22.15902344 10.14914063 22.14226562 9.25 22.125 C8.36183594 22.11597656 7.47367188 22.10695313 6.55859375 22.09765625 C4.37211942 22.07414577 2.18619906 22.04128499 0 22 C0 23.65 0 25.3 0 27 C-4.91935902 22.88380164 -9.52647956 18.59589638 -14 14 C-2.28571429 0 -2.28571429 0 0 0 Z " fill="#EAEEF4" transform="translate(109,98)"/>
<path d="M0 0 C3.05859375 0.484375 3.05859375 0.484375 5.2109375 2.53125 C5.80003906 3.42328125 6.38914062 4.3153125 6.99609375 5.234375 C7.60324219 6.11609375 8.21039063 6.9978125 8.8359375 7.90625 C10.26365889 10.91678073 10.13995648 11.44516927 9.05859375 14.484375 C8.13333492 16.10569535 7.14575455 17.69217029 6.1171875 19.25 C5.53388672 20.13945313 4.95058594 21.02890625 4.34960938 21.9453125 C3.43211914 23.32589844 3.43211914 23.32589844 2.49609375 24.734375 C1.88056641 25.67023437 1.26503906 26.60609375 0.63085938 27.5703125 C-0.88822046 29.87837178 -2.4124475 32.18285301 -3.94140625 34.484375 C-7.49981576 33.68737064 -10.07905334 32.34661956 -13.19140625 30.421875 C-14.0834375 29.87402344 -14.97546875 29.32617188 -15.89453125 28.76171875 C-16.57 28.34019531 -17.24546875 27.91867188 -17.94140625 27.484375 C-17.36542881 23.83812449 -16.39531291 21.13101625 -14.54296875 17.9453125 C-14.0634375 17.11773437 -13.58390625 16.29015625 -13.08984375 15.4375 C-12.58710937 14.58671875 -12.084375 13.7359375 -11.56640625 12.859375 C-11.07140625 12.00085937 -10.57640625 11.14234375 -10.06640625 10.2578125 C-4.50557654 0.74195417 -4.50557654 0.74195417 0 0 Z " fill="#1F2024" transform="translate(80.94140625,23.515625)"/>
<path d="M0 0 C9.57 0 19.14 0 29 0 C29 4.95 29 9.9 29 15 C24.60314317 15.13487291 20.2104172 15.23408579 15.8125 15.3125 C13.94368164 15.3753418 13.94368164 15.3753418 12.03710938 15.43945312 C1.72947918 15.57762511 1.72947918 15.57762511 -1.3671875 12.671875 C-3 10 -3 10 -2.9375 6.9375 C-2 4 -2 4 0 0 Z " fill="#EFF3F7" transform="translate(53,105)"/>
<path d="M0 0 C1.72338867 2.13964844 1.72338867 2.13964844 3.41796875 5.109375 C4.33932617 6.70652344 4.33932617 6.70652344 5.27929688 8.3359375 C6.22385742 10.02589844 6.22385742 10.02589844 7.1875 11.75 C7.82880859 12.86117187 8.47011719 13.97234375 9.13085938 15.1171875 C14.2669398 24.12024294 14.2669398 24.12024294 15 28 C14.01 28.495 14.01 28.495 13 29 C12.34 29.99 11.68 30.98 11 32 C10.78601563 31.04996094 10.57203125 30.09992188 10.3515625 29.12109375 C8.88403879 23.98476078 6.10361593 19.6159644 3.375 15.0625 C2.859375 14.18787109 2.34375 13.31324219 1.8125 12.41210938 C0.54859871 10.27049886 -0.72231629 8.13340647 -2 6 C-5.3523301 7.25638991 -8.30402615 8.68733888 -11.3125 10.625 C-12.00988281 11.07101563 -12.70726563 11.51703125 -13.42578125 11.9765625 C-13.94527344 12.31429687 -14.46476562 12.65203125 -15 13 C-13.89835882 15.23044611 -12.79378106 17.45935646 -11.6875 19.6875 C-11.37876953 20.31333984 -11.07003906 20.93917969 -10.75195312 21.58398438 C-9.34929028 24.40407493 -7.91475062 27.13700793 -6.25 29.8125 C-5 32 -5 32 -5.3125 34.3125 C-5.539375 34.869375 -5.76625 35.42625 -6 36 C-6.8971875 34.7934375 -6.8971875 34.7934375 -7.8125 33.5625 C-11.61924313 29.64509573 -16.84652934 30.09927877 -22 30 C-20 28 -20 28 -16.375 27.875 C-14.704375 27.936875 -14.704375 27.936875 -13 28 C-13.956581 26.22821947 -14.91532988 24.45760924 -15.875 22.6875 C-16.67550781 21.20830078 -16.67550781 21.20830078 -17.4921875 19.69921875 C-19.00722126 16.90413542 -19.00722126 16.90413542 -21 14 C-20.79894509 11.43662717 -20.39866293 10.36014879 -18.48120117 8.62792969 C-17.84158447 8.22993164 -17.20196777 7.83193359 -16.54296875 7.421875 C-15.84236328 6.98359375 -15.14175781 6.5453125 -14.41992188 6.09375 C-13.68322266 5.6503125 -12.94652344 5.206875 -12.1875 4.75 C-11.46240234 4.29109375 -10.73730469 3.8321875 -9.99023438 3.359375 C-4.52625093 0 -4.52625093 0 0 0 Z " fill="#0E318D" transform="translate(134,63)"/>
<path d="M0 0 C1.32 0 2.64 0 4 0 C5.70758253 2.90534565 7.38738354 5.82583418 9.0625 8.75 C9.54783203 9.575 10.03316406 10.4 10.53320312 11.25 C10.98759766 12.04921875 11.44199219 12.8484375 11.91015625 13.671875 C12.33433838 14.4050293 12.75852051 15.13818359 13.19555664 15.89355469 C14.14514362 18.38006044 13.89753304 19.53847306 13 22 C12.1028125 20.7934375 12.1028125 20.7934375 11.1875 19.5625 C7.38075687 15.64509573 2.15347066 16.09927877 -3 16 C-1 14 -1 14 2.625 13.875 C4.295625 13.936875 4.295625 13.936875 6 14 C5.566875 13.24074219 5.13375 12.48148438 4.6875 11.69921875 C4.130625 10.70535156 3.57375 9.71148437 3 8.6875 C2.443125 7.70136719 1.88625 6.71523437 1.3125 5.69921875 C0 3 0 3 0 0 Z " fill="#203D8C" transform="translate(115,77)"/>
<path d="M0 0 C4.1117256 -0.02465746 8.22342278 -0.04283959 12.33520508 -0.05493164 C13.73495228 -0.0599708 15.1346942 -0.06680216 16.53442383 -0.07543945 C18.54245777 -0.0875232 20.55052957 -0.09269807 22.55859375 -0.09765625 C24.37315063 -0.10551147 24.37315063 -0.10551147 26.22436523 -0.11352539 C29 0 29 0 30 1 C30.08669432 2.4887186 30.10703494 3.981445 30.09765625 5.47265625 C30.09443359 6.37177734 30.09121094 7.27089844 30.08789062 8.19726562 C30.07951172 9.14279297 30.07113281 10.08832031 30.0625 11.0625 C30.05798828 12.01189453 30.05347656 12.96128906 30.04882812 13.93945312 C30.0370011 16.29303065 30.02052025 18.64648477 30 21 C27.32745084 18.67590894 27.02399002 18.16756385 26.48828125 14.42578125 C26.41285854 13.05551021 26.35767906 11.68410131 26.3125 10.3125 C26.209375 7.899375 26.10625 5.48625 26 3 C13.13 2.505 13.13 2.505 0 2 C0 1.34 0 0.68 0 0 Z " fill="#022B90" transform="translate(56,102)"/>
<path d="M0 0 C1.32 0.33 2.64 0.66 4 1 C4 2.32 4 3.64 4 5 C3.01 5 2.02 5 1 5 C1 5.66 1 6.32 1 7 C0.38125 7.2475 -0.2375 7.495 -0.875 7.75 C-3.39578467 9.23281451 -3.7852998 10.40863958 -5 13 C-5.99 13.66 -6.98 14.32 -8 15 C-6.62712658 11.30123909 -4.93644547 8.0485524 -2.875 4.6875 C-2.33617187 3.80449219 -1.79734375 2.92148438 -1.2421875 2.01171875 C-0.83226562 1.34785156 -0.42234375 0.68398437 0 0 Z " fill="#153792" transform="translate(62,82)"/>
<path d="M0 0 C1.6026782 -0.10824843 3.20745748 -0.18570645 4.8125 -0.25 C5.70582031 -0.29640625 6.59914063 -0.3428125 7.51953125 -0.390625 C10 0 10 0 13 4 C8.71 4 4.42 4 0 4 C0 2.68 0 1.36 0 0 Z " fill="#E8ECEF" transform="translate(114,95)"/>
<path d="M0 0 C2.18742014 3.2811302 2.54442806 5.33084356 3.125 9.1875 C3.29257813 10.27417969 3.46015625 11.36085938 3.6328125 12.48046875 C3.75398438 13.31191406 3.87515625 14.14335938 4 15 C1.03 14.505 1.03 14.505 -2 14 C-2.33 12.35 -2.66 10.7 -3 9 C-2.01 9.33 -1.02 9.66 0 10 C0 6.7 0 3.4 0 0 Z " fill="#072A86" transform="translate(69,75)"/>
<path d="M0 0 C0.66 0.33 1.32 0.66 2 1 C1.34 1.66 0.68 2.32 0 3 C-0.28875 3.845625 -0.5775 4.69125 -0.875 5.5625 C-2 8 -2 8 -4.125 8.8125 C-4.74375 8.874375 -5.3625 8.93625 -6 9 C-6.33 7.68 -6.66 6.36 -7 5 C-4.69 3.35 -2.38 1.7 0 0 Z " fill="#0A2C87" transform="translate(120,69)"/>
<path d="M0 0 C0.66 0.33 1.32 0.66 2 1 C0.35 4.3 -1.3 7.6 -3 11 C-3.99 11 -4.98 11 -6 11 C-5.39593483 7.61723506 -4.14257201 5.65678929 -2 3 C-1.34 2.01 -0.68 1.02 0 0 Z " fill="#042C8D" transform="translate(60,89)"/>
<path d="M0 0 C0.66 0 1.32 0 2 0 C3.125 7.75 3.125 7.75 2 10 C1.34 10 0.68 10 0 10 C-1.125 2.25 -1.125 2.25 0 0 Z " fill="#103795" transform="translate(67,75)"/>
<path d="M0 0 C2 3 2 3 2 7 C1.34 7 0.68 7 0 7 C-0.33 7.66 -0.66 8.32 -1 9 C-1.625 6.1875 -1.625 6.1875 -2 3 C-1.34 2.01 -0.68 1.02 0 0 Z " fill="#082986" transform="translate(67,68)"/>
<path d="M0 0 C0.66 0.99 1.32 1.98 2 3 C1.67 3.99 1.34 4.98 1 6 C-1.5625 7.1875 -1.5625 7.1875 -4 8 C-2.68 5.36 -1.36 2.72 0 0 Z " fill="#183791" transform="translate(137,108)"/>
</svg>
