<?xml version="1.0" encoding="UTF-8"?>
<svg version="1.1" xmlns="http://www.w3.org/2000/svg" width="161" height="213">
<path d="M0 0 C53.13 0 106.26 0 161 0 C161 70.29 161 140.58 161 213 C107.87 213 54.74 213 0 213 C0 142.71 0 72.42 0 0 Z " fill="#1F2020" transform="translate(0,0)"/>
<path d="M0 0 C2.475 2.475 2.475 2.475 5 5 C5.33 3.68 5.66 2.36 6 1 C6.99 1 7.98 1 9 1 C8.62748213 16.7575058 7.00419321 32.64372319 0 47 C-0.49242187 48.03511719 -0.98484375 49.07023437 -1.4921875 50.13671875 C-5.78268611 58.64851438 -10.94581435 66.6305429 -19 72 C-15.66403035 73.06467116 -13.29783736 73.26916771 -10 72 C-7.59440829 69.11212783 -5.91009649 65.79063578 -4.27172852 62.42358398 C-3.28304869 60.46747873 -2.37203938 58.71098081 -1 57 C2.26953125 56.02734375 2.26953125 56.02734375 5 56 C5.05534912 55.40461426 5.11069824 54.80922852 5.16772461 54.19580078 C5.42018865 51.50512785 5.67876816 48.81507714 5.9375 46.125 C6.02451172 45.18785156 6.11152344 44.25070313 6.20117188 43.28515625 C6.28818359 42.38925781 6.37519531 41.49335937 6.46484375 40.5703125 C6.543396 39.74289551 6.62194824 38.91547852 6.70288086 38.06298828 C7 36 7 36 8 34 C9.32 34.33 10.64 34.66 12 35 C12.32927422 41.69524252 11.67799244 47.96730668 10.625 54.5625 C10.49891357 55.35309814 10.37282715 56.14369629 10.24291992 56.95825195 C9.34799863 62.35066914 8.23706815 67.67616048 7 73 C8.32 73 9.64 73 11 73 C10.97679687 72.14019531 10.95359375 71.28039062 10.9296875 70.39453125 C10.80227673 62.04912574 11.47392783 54.20263794 13 46 C13.66 46 14.32 46 15 46 C15.33 45.01 15.66 44.02 16 43 C16 52.57 16 62.14 16 72 C17.65 72 19.3 72 21 72 C20.92998779 71.40388916 20.85997559 70.80777832 20.7878418 70.19360352 C19.94660104 62.18954362 19.81381304 54.21937651 19.81469727 46.1809082 C19.8124732 43.91013833 19.79414053 41.63982737 19.77539062 39.36914062 C19.77246258 37.92187664 19.77047385 36.47461039 19.76953125 35.02734375 C19.76542236 33.72531006 19.76131348 32.42327637 19.75708008 31.08178711 C20 28 20 28 22 26 C26.55555556 26.55555556 26.55555556 26.55555556 28 28 C28.42871683 30.20218574 28.81574361 32.4124862 29.1875 34.625 C30.48864916 41.98812552 32.23649541 49.20433042 34.125 56.4375 C34.39078857 57.46246582 34.65657715 58.48743164 34.93041992 59.54345703 C35.79475198 64.11612927 35.79475198 64.11612927 38 68 C38 69.65 38 71.3 38 73 C41.63 72.67 45.26 72.34 49 72 C47.9275 70.845 46.855 69.69 45.75 68.5 C42.32230647 64.58164873 40.06379397 60.74863706 38 56 C37.7009375 55.39027344 37.401875 54.78054687 37.09375 54.15234375 C35.25799648 50.28536296 34.68819485 47.26133709 35 43 C35.66 43 36.32 43 37 43 C37.33 43.66 37.66 44.32 38 45 C38.06058594 44.28972656 38.12117188 43.57945312 38.18359375 42.84765625 C38.30927734 41.46900391 38.30927734 41.46900391 38.4375 40.0625 C38.55931641 38.68771484 38.55931641 38.68771484 38.68359375 37.28515625 C39 35 39 35 40 34 C42.51662648 34.06467965 44.99184871 34.1909155 47.5 34.375 C48.20253906 34.41882813 48.90507813 34.46265625 49.62890625 34.5078125 C54.87145769 34.87145769 54.87145769 34.87145769 56 36 C56.07226502 37.85287502 56.0838122 39.70833878 56.0625 41.5625 C56.05347656 42.57441406 56.04445313 43.58632812 56.03515625 44.62890625 C56.02355469 45.41136719 56.01195313 46.19382813 56 47 C56.969375 47.144375 57.93875 47.28875 58.9375 47.4375 C62 48 62 48 63 49 C63.04080783 50.99958364 63.04254356 53.00045254 63 55 C63.969375 55.144375 64.93875 55.28875 65.9375 55.4375 C69 56 69 56 70 57 C70.07205511 58.68608966 70.08386068 60.37500659 70.0625 62.0625 C70.05347656 62.98160156 70.04445313 63.90070313 70.03515625 64.84765625 C70.02355469 65.55792969 70.01195312 66.26820313 70 67 C69.01 67 68.02 67 67 67 C67 64.36 67 61.72 67 59 C65.68 59 64.36 59 63 59 C63 60.65 63 62.3 63 64 C62.01 64 61.02 64 60 64 C60 59.71 60 55.42 60 51 C57.69 51 55.38 51 53 51 C52.505 45.06 52.505 45.06 52 39 C48.7 38.67 45.4 38.34 42 38 C42.00605017 41.17028967 42.05378744 44.33104108 42.125 47.5 C42.12242188 48.386875 42.11984375 49.27375 42.1171875 50.1875 C42.31647245 56.96318843 44.12036408 61.22682886 49 66 C52.16675045 68.00590779 52.16675045 68.00590779 55 69 C55.495 67.515 55.495 67.515 56 66 C60.875 66.875 60.875 66.875 62 68 C62.04080783 69.99958364 62.04254356 72.00045254 62 74 C63.051875 73.484375 64.10375 72.96875 65.1875 72.4375 C68.48738531 71.0117889 70.51786498 70.77101117 74 72 C75 73 75 73 75.0625 75.5625 C75.041875 76.366875 75.02125 77.17125 75 78 C76.65 78.33 78.3 78.66 80 79 C80 79.33 80 79.66 80 80 C76.77085248 80.02917228 73.54173917 80.04685663 70.3125 80.0625 C68.94448242 80.07506836 68.94448242 80.07506836 67.54882812 80.08789062 C66.66259766 80.09111328 65.77636719 80.09433594 64.86328125 80.09765625 C64.05157471 80.10289307 63.23986816 80.10812988 62.40356445 80.11352539 C60 80 60 80 57.81987 79.50099182 C54.35911167 78.88613666 50.98011022 78.86034719 47.47851562 78.87060547 C46.73788879 78.86885315 45.99726196 78.86710083 45.23419189 78.86529541 C42.79152056 78.86090405 40.34892205 78.86380775 37.90625 78.8671875 C36.19575995 78.86651311 34.48527 78.86554196 32.77478027 78.86428833 C29.18708383 78.86281455 25.59941229 78.86495354 22.01171875 78.86962891 C17.44727819 78.87529148 12.88289689 78.87206733 8.31845856 78.86605644 C4.78193734 78.8624126 1.24542975 78.86360741 -2.29109192 78.86618423 C-3.97174588 78.86684478 -5.65240114 78.86605611 -7.33305359 78.86370468 C-16.05389342 78.85418997 -24.67762773 78.98378434 -33.37150574 79.77638245 C-36.86890912 80.07392192 -40.30306034 80.09794889 -43.8125 80.0625 C-44.99457031 80.05347656 -46.17664063 80.04445313 -47.39453125 80.03515625 C-48.68423828 80.01775391 -48.68423828 80.01775391 -50 80 C-50 79.34 -50 78.68 -50 78 C-48.73542969 77.81824219 -47.47085938 77.63648438 -46.16796875 77.44921875 C-44.50771368 77.1959595 -42.84756263 76.94201761 -41.1875 76.6875 C-39.93743164 76.51057617 -39.93743164 76.51057617 -38.66210938 76.33007812 C-37.85966797 76.20439453 -37.05722656 76.07871094 -36.23046875 75.94921875 C-35.49207764 75.83924561 -34.75368652 75.72927246 -33.99291992 75.6159668 C-31.61791721 74.88190679 -30.65034262 73.81872078 -29 72 C-26.984375 71.04296875 -26.984375 71.04296875 -24.75 70.1875 C-17.67105497 67.16024383 -12.80761713 62.73655339 -9 56 C-8.09290545 53.06593168 -7.82095106 50.29548077 -7.68359375 47.234375 C-7.62075195 45.90019531 -7.62075195 45.90019531 -7.55664062 44.5390625 C-7.51732422 43.61867187 -7.47800781 42.69828125 -7.4375 41.75 C-7.37272461 40.34621094 -7.37272461 40.34621094 -7.30664062 38.9140625 C-7.2008195 36.60951359 -7.09873443 34.30486161 -7 32 C-7.61488281 32.2165625 -8.22976562 32.433125 -8.86328125 32.65625 C-9.67152344 32.9346875 -10.47976562 33.213125 -11.3125 33.5 C-12.11300781 33.7784375 -12.91351563 34.056875 -13.73828125 34.34375 C-16 35 -16 35 -19 35 C-19 44.24 -19 53.48 -19 63 C-21.97 63.99 -24.94 64.98 -28 66 C-28 59.73 -28 53.46 -28 47 C-30.64 47.33 -33.28 47.66 -36 48 C-36 52.95 -36 57.9 -36 63 C-36.99 62.67 -37.98 62.34 -39 62 C-39 56.72 -39 51.44 -39 46 C-34.07015675 43.96006486 -30.42039575 42.59347032 -25 43 C-24.8046875 45.05078125 -24.609375 47.1015625 -24.4140625 49.15234375 C-24.27742188 49.76207031 -24.14078125 50.37179688 -24 51 C-23.34 51.33 -22.68 51.66 -22 52 C-22.01571045 51.43490723 -22.0314209 50.86981445 -22.04760742 50.28759766 C-22.10987045 47.73349977 -22.14896136 45.17956129 -22.1875 42.625 C-22.21263672 41.73554687 -22.23777344 40.84609375 -22.26367188 39.9296875 C-22.27333984 39.07890625 -22.28300781 38.228125 -22.29296875 37.3515625 C-22.3086792 36.56604004 -22.32438965 35.78051758 -22.34057617 34.97119141 C-22.22818604 34.32069824 -22.1157959 33.67020508 -22 33 C-18.5752303 30.7168202 -15.88984561 30.15751371 -11.875 29.3125 C-10.61429688 29.04050781 -9.35359375 28.76851562 -8.0546875 28.48828125 C-7.04664063 28.32714844 -6.03859375 28.16601562 -5 28 C-3.00383446 29.99616554 -3.59016573 33.81701963 -3.4375 36.5625 C-3.39431641 37.27341797 -3.35113281 37.98433594 -3.30664062 38.71679688 C-3.20028223 40.47761912 -3.09961154 42.2387832 -3 44 C-2.01701402 40.77198351 -1.03929198 37.54239567 -0.0625 34.3125 C0.21529297 33.40048828 0.49308594 32.48847656 0.77929688 31.54882812 C1.18051758 30.21948242 1.18051758 30.21948242 1.58984375 28.86328125 C1.83597412 28.05157471 2.08210449 27.23986816 2.33569336 26.40356445 C3.83165556 20.9909412 4.78792049 15.60753806 4 10 C2.08140833 7.26780807 2.08140833 7.26780807 0 5 C-0.25 2.1875 -0.25 2.1875 0 0 Z " fill="#062E8B" transform="translate(69,86)"/>
<path d="M0 0 C0.66 0 1.32 0 2 0 C2.495 0.99 2.495 0.99 3 2 C5.52733235 2.65555119 5.52733235 2.65555119 8 3 C8 3.66 8 4.32 8 5 C6.68 5.33 5.36 5.66 4 6 C4.66 6.66 5.32 7.32 6 8 C8.51443637 11.77165455 8.67086629 14.65093575 8 19 C7.16018831 22.09050701 6.12711301 24.9943653 5 28 C7.97 28 10.94 28 14 28 C14.20496094 28.62648438 14.40992188 29.25296875 14.62109375 29.8984375 C14.89050781 30.71570313 15.15992188 31.53296875 15.4375 32.375 C15.70433594 33.18710938 15.97117188 33.99921875 16.24609375 34.8359375 C16.95179729 37.01031799 16.95179729 37.01031799 18 39 C18.3125 42.3125 18.3125 42.3125 18 46 C17.319375 46.763125 16.63875 47.52625 15.9375 48.3125 C13.39453632 51.83983671 13.76758593 53.58481128 14.375 57.7734375 C15.62667663 64.2352181 17.06919568 70.6504665 18.55859375 77.06103516 C19.08326907 79.36577595 19.55517818 81.6785861 20 84 C19.34 84 18.68 84 18 84 C20.48171807 95.37454116 25.48961373 105.09880146 33 114 C29.04 114 25.08 114 21 114 C18.21842866 104.86224224 15.59299864 95.69837791 13.25 86.4375 C13.03964111 85.61797852 12.82928223 84.79845703 12.61254883 83.95410156 C11.37191335 78.97532229 10.53783605 74.10359645 10 69 C8.34385343 68.61781233 6.67542976 68.28604898 5 68 C3.80428614 68.97633465 3.80428614 68.97633465 3.87974548 70.79066467 C3.88196609 71.57009933 3.88418671 72.349534 3.88647461 73.15258789 C3.88655014 74.03342545 3.88662567 74.914263 3.88670349 75.8217926 C3.89186478 76.77907761 3.89702606 77.73636261 3.90234375 78.72265625 C3.90446617 80.18547279 3.90446617 80.18547279 3.90663147 81.67784119 C3.91224867 84.80609143 3.92480407 87.93427123 3.9375 91.0625 C3.94251278 93.17773334 3.94707607 95.29296781 3.95117188 97.40820312 C3.96222369 102.60549296 3.97897854 107.80274145 4 113 C2.35 113 0.7 113 -1 113 C-1.495 100.13 -1.495 100.13 -2 87 C-2.66 87 -3.32 87 -4 87 C-4.66 95.91 -5.32 104.82 -6 114 C-7.32 114 -8.64 114 -10 114 C-9.5625 110.9375 -9.5625 110.9375 -9.125 107.875 C-8.94453125 106.59882813 -8.7640625 105.32265625 -8.578125 104.0078125 C-8.21165526 101.43629181 -7.82341475 98.8712862 -7.421875 96.3046875 C-6.37061104 89.47147176 -5.71320551 82.91493381 -6 76 C-7.485 75.505 -7.485 75.505 -9 75 C-9.19916016 76.87945312 -9.19916016 76.87945312 -9.40234375 78.796875 C-9.58058291 80.44793246 -9.7589764 82.09897327 -9.9375 83.75 C-10.02451172 84.575 -10.11152344 85.4 -10.20117188 86.25 C-10.28818359 87.04921875 -10.37519531 87.8484375 -10.46484375 88.671875 C-10.543396 89.4050293 -10.62194824 90.13818359 -10.70288086 90.89355469 C-10.9973877 92.98147994 -11.45117496 94.96552768 -12 97 C-13.423125 97.0928125 -13.423125 97.0928125 -14.875 97.1875 C-16.421875 97.5896875 -16.421875 97.5896875 -18 98 C-19.08226 100.26040436 -19.08226 100.26040436 -20 103 C-21.92776056 107.05815503 -23.89778489 110.7232501 -27 114 C-30.50947501 114.92972992 -33.46205633 114.70474129 -37 114 C-35.9790625 113.01 -35.9790625 113.01 -34.9375 112 C-33.95478698 111.00348483 -32.9759899 110.00310073 -32 109 C-31.46890625 108.46503906 -30.9378125 107.93007812 -30.390625 107.37890625 C-13.44801527 89.30937981 -10.4423657 65.61819596 -8 42 C-8.99 42 -9.98 42 -11 42 C-11 43.65 -11 45.3 -11 47 C-13.5 45.9375 -13.5 45.9375 -16 44 C-16.3607834 40.57255771 -16.55938978 38.11877956 -15 35 C-14.34 35 -13.68 35 -13 35 C-13.185625 34.030625 -13.37125 33.06125 -13.5625 32.0625 C-13.706875 31.051875 -13.85125 30.04125 -14 29 C-13 28 -13 28 -10.93359375 27.90234375 C-7.46679688 27.95117188 -7.46679688 27.95117188 -4 28 C-4.33 24.7 -4.66 21.4 -5 18 C-4.34 18 -3.68 18 -3 18 C-3 18.99 -3 19.98 -3 21 C-1.35 21 0.3 21 2 21 C2 20.01 2 19.02 2 18 C1.01 17.34 0.02 16.68 -1 16 C0.65 15.67 2.3 15.34 4 15 C4 15.66 4 16.32 4 17 C4.66 17 5.32 17 6 17 C4.91215032 13.75016865 4.91215032 13.75016865 3 11 C-0.72224599 10.70613847 -1.77786243 10.85190829 -5 13 C-4.7215625 11.3603125 -4.7215625 11.3603125 -4.4375 9.6875 C-3.7421932 6.06375867 -3.7421932 6.06375867 -5 3 C-4.360625 2.87625 -3.72125 2.7525 -3.0625 2.625 C-2.381875 2.41875 -1.70125 2.2125 -1 2 C-0.67 1.34 -0.34 0.68 0 0 Z " fill="#0A2D80" transform="translate(86,45)"/>
<path d="M0 0 C8.91 0 17.82 0 27 0 C27 2.64 27 5.28 27 8 C26.34 8.33 25.68 8.66 25 9 C24.505 7.02 24.505 7.02 24 5 C19.05 4.67 14.1 4.34 9 4 C9.66 4.99 10.32 5.98 11 7 C11.26869591 10.16811218 11.37933401 13.20250549 11.375 16.375 C11.37693359 17.87160156 11.37693359 17.87160156 11.37890625 19.3984375 C11.13822434 38.30290742 8.84093821 57.19892892 7 76 C5.68 76 4.36 76 3 76 C3.4375 72.9375 3.4375 72.9375 3.875 69.875 C4.05546875 68.59882813 4.2359375 67.32265625 4.421875 66.0078125 C4.78834474 63.43629181 5.17658525 60.8712862 5.578125 58.3046875 C6.62938896 51.47147176 7.28679449 44.91493381 7 38 C5.515 37.505 5.515 37.505 4 37 C3.86722656 38.25296875 3.73445313 39.5059375 3.59765625 40.796875 C3.41941709 42.44793246 3.2410236 44.09897327 3.0625 45.75 C2.97548828 46.575 2.88847656 47.4 2.79882812 48.25 C2.71181641 49.04921875 2.62480469 49.8484375 2.53515625 50.671875 C2.456604 51.4050293 2.37805176 52.13818359 2.29711914 52.89355469 C2.0026123 54.98147994 1.54882504 56.96552768 1 59 C-0.423125 59.0928125 -0.423125 59.0928125 -1.875 59.1875 C-2.90625 59.455625 -3.9375 59.72375 -5 60 C-6.08226 62.26040436 -6.08226 62.26040436 -7 65 C-8.92776056 69.05815503 -10.89778489 72.7232501 -14 76 C-17.50947501 76.92972992 -20.46205633 76.70474129 -24 76 C-22.9790625 75.01 -22.9790625 75.01 -21.9375 74 C-20.95478698 73.00348483 -19.9759899 72.00310073 -19 71 C-18.46890625 70.46503906 -17.9378125 69.93007812 -17.390625 69.37890625 C-0.44801527 51.30937981 2.5576343 27.61819596 5 4 C4.01 4 3.02 4 2 4 C2 5.65 2 7.3 2 9 C1.01 8.34 0.02 7.68 -1 7 C-0.67 4.69 -0.34 2.38 0 0 Z " fill="#1F222B" transform="translate(73,83)"/>
<path d="M0 0 C2.64 0 5.28 0 8 0 C9.94364684 6.26781526 11.14334718 12.62230286 12.375 19.0625 C16.03278221 37.66608791 20.51021516 55.19729204 33 70 C29.04 70 25.08 70 21 70 C18.21842866 60.86224224 15.59299864 51.69837791 13.25 42.4375 C13.03964111 41.61797852 12.82928223 40.79845703 12.61254883 39.95410156 C11.37191335 34.97532229 10.53783605 30.10359645 10 25 C8.34385343 24.61781233 6.67542976 24.28604898 5 24 C3.80428614 24.97633465 3.80428614 24.97633465 3.87974548 26.79066467 C3.88196609 27.57009933 3.88418671 28.349534 3.88647461 29.15258789 C3.88655014 30.03342545 3.88662567 30.914263 3.88670349 31.8217926 C3.89186478 32.77907761 3.89702606 33.73636261 3.90234375 34.72265625 C3.9037587 35.69786728 3.90517365 36.67307831 3.90663147 37.67784119 C3.91224867 40.80609143 3.92480407 43.93427123 3.9375 47.0625 C3.94251278 49.17773334 3.94707607 51.29296781 3.95117188 53.40820312 C3.96222369 58.60549296 3.97897854 63.80274145 4 69 C2.35 69 0.7 69 -1 69 C-1.20154141 45.98707177 -0.61615963 23.00274663 0 0 Z " fill="#1F2126" transform="translate(86,89)"/>
<path d="M0 0 C0.66 0 1.32 0 2 0 C2.33 0.66 2.66 1.32 3 2 C5.52733235 2.65555119 5.52733235 2.65555119 8 3 C8 3.66 8 4.32 8 5 C6.68 5.33 5.36 5.66 4 6 C4.66 6.66 5.32 7.32 6 8 C8.51443637 11.77165455 8.67086629 14.65093575 8 19 C7.16569089 22.07025754 6.15281237 25.03562533 5 28 C6.32 28 7.64 28 9 28 C9 28.99 9 29.98 9 31 C4.74433453 32.16063604 1.3164922 31.76173392 -3 31 C-3.495 32.485 -3.495 32.485 -4 34 C-4 33.01 -4 32.02 -4 31 C-4.66 31 -5.32 31 -6 31 C-5.505 29.515 -5.505 29.515 -5 28 C-4.93197033 26.27204648 -4.91504355 24.54164635 -4.9375 22.8125 C-4.94652344 21.91144531 -4.95554687 21.01039062 -4.96484375 20.08203125 C-4.97644531 19.39496094 -4.98804687 18.70789063 -5 18 C-4.34 18 -3.68 18 -3 18 C-3 18.99 -3 19.98 -3 21 C-1.35 21 0.3 21 2 21 C2 20.01 2 19.02 2 18 C1.01 17.34 0.02 16.68 -1 16 C0.65 15.67 2.3 15.34 4 15 C4 15.66 4 16.32 4 17 C4.66 17 5.32 17 6 17 C4.91215032 13.75016865 4.91215032 13.75016865 3 11 C-0.72224599 10.70613847 -1.77786243 10.85190829 -5 13 C-4.814375 11.906875 -4.62875 10.81375 -4.4375 9.6875 C-3.7421932 6.06375867 -3.7421932 6.06375867 -5 3 C-4.360625 2.87625 -3.72125 2.7525 -3.0625 2.625 C-2.0415625 2.315625 -2.0415625 2.315625 -1 2 C-0.67 1.34 -0.34 0.68 0 0 Z " fill="#062F8D" transform="translate(86,45)"/>
<path d="M0 0 C2.77496313 0.01070287 5.5492753 0.00004727 8.32421875 -0.01269531 C17.16076732 -0.02013662 25.90655161 0.22794195 34.69921875 1.15136719 C35.46599945 1.22885193 36.23278015 1.30633667 37.02279663 1.38616943 C38.82942917 1.60044622 40.62301556 1.92020755 42.41015625 2.26074219 C42.90515625 3.25074219 42.90515625 3.25074219 43.41015625 4.26074219 C16.68015625 4.26074219 -10.04984375 4.26074219 -37.58984375 4.26074219 C-28.08029832 -2.07895477 -11.0684023 -0.05059396 0 0 Z " fill="#0A2C82" transform="translate(81.58984375,165.7392578125)"/>
<path d="M0 0 C0.66 0.66 1.32 1.32 2 2 C2.66 1.34 3.32 0.68 4 0 C6.88306818 -0.36962413 8.39094287 -0.4200394 10.8125 1.25 C12 3 12 3 12 7 C11.34 7 10.68 7 10 7 C10 6.34 10 5.68 10 5 C8.68 5.33 7.36 5.66 6 6 C6.99 6.66 7.98 7.32 9 8 C8.67 9.32 8.34 10.64 8 12 C6.35 11.67 4.7 11.34 3 11 C3 10.01 3 9.02 3 8 C2.34 8 1.68 8 1 8 C1.33 9.65 1.66 11.3 2 13 C0 11 0 11 -0.1953125 8.3984375 C-0.17210938 7.40070312 -0.14890625 6.40296875 -0.125 5.375 C-0.10695313 4.37210938 -0.08890625 3.36921875 -0.0703125 2.3359375 C-0.04710938 1.56507812 -0.02390625 0.79421875 0 0 Z " fill="#092A7F" transform="translate(80,55)"/>
<path d="M0 0 C-0.99 0.33 -1.98 0.66 -3 1 C-2.01 1.33 -1.02 1.66 0 2 C0 8.6 0 15.2 0 22 C-0.33 22 -0.66 22 -1 22 C-1 15.73 -1 9.46 -1 3 C-3.64 3.33 -6.28 3.66 -9 4 C-9 8.95 -9 13.9 -9 19 C-9.99 18.67 -10.98 18.34 -12 18 C-12 12.72 -12 7.44 -12 2 C-3.96428571 -1.34821429 -3.96428571 -1.34821429 0 0 Z " fill="#0C2A7B" transform="translate(42,130)"/>
<path d="M0 0 C0.66 0 1.32 0 2 0 C3.98 6.6 5.96 13.2 8 20 C6.35 20 4.7 20 3 20 C2.30081695 17.41932437 1.61538951 14.83627153 0.9375 12.25 C0.73833984 11.52039063 0.53917969 10.79078125 0.33398438 10.0390625 C-0.63744407 6.28968956 -1.15449387 3.69725762 0 0 Z " fill="#1F2125" transform="translate(96,138)"/>
<path d="M0 0 C0.33 0 0.66 0 1 0 C1 4.95 1 9.9 1 15 C2.32 14.67 3.64 14.34 5 14 C4.51675181 19.15464734 1.81389239 22.81550319 -1 27 C-1.66 26.67 -2.32 26.34 -3 26 C-2.68289062 25.04996094 -2.36578125 24.09992188 -2.0390625 23.12109375 C-0.71134583 18.47408541 -0.55047304 13.86973029 -0.375 9.0625 C-0.33632813 8.18787109 -0.29765625 7.31324219 -0.2578125 6.41210938 C-0.1643893 4.27505369 -0.08114602 2.13755706 0 0 Z " fill="#032F92" transform="translate(63,118)"/>
<path d="M0 0 C2.4375 0.1875 2.4375 0.1875 3.4375 1.1875 C3.625 3.625 3.625 3.625 3.4375 6.1875 C1.4375 8.1875 1.4375 8.1875 -2.1875 8.3125 C-3.30125 8.27125 -4.415 8.23 -5.5625 8.1875 C-4.53787473 0.33203961 -4.53787473 0.33203961 0 0 Z " fill="#052F8F" transform="translate(29.5625,152.8125)"/>
<path d="M0 0 C1.974667 2.96200051 2.71955354 5.09771632 3.625 8.5 C3.88539062 9.4590625 4.14578125 10.418125 4.4140625 11.40625 C5 14 5 14 5 17 C4.67 16.67 4.34 16.34 4 16 C3.34 16.66 2.68 17.32 2 18 C1.32968281 16.0429132 0.66385317 14.08428887 0 12.125 C-0.37125 11.03445312 -0.7425 9.94390625 -1.125 8.8203125 C-2 6 -2 6 -2 4 C-1.34 4 -0.68 4 0 4 C0 2.68 0 1.36 0 0 Z " fill="#092C82" transform="translate(101,139)"/>
<path d="M0 0 C2.5625 0.3125 2.5625 0.3125 4.375 1.5625 C5.5625 3.3125 5.5625 3.3125 5.5625 7.3125 C4.9025 7.3125 4.2425 7.3125 3.5625 7.3125 C3.5625 6.6525 3.5625 5.9925 3.5625 5.3125 C-0.15349191 5.11163557 -1.20958445 5.1605563 -4.4375 7.3125 C-4.5625 4.9375 -4.5625 4.9375 -4.4375 2.3125 C-2.4375 0.3125 -2.4375 0.3125 0 0 Z " fill="#1E2333" transform="translate(86.4375,54.6875)"/>
<path d="M0 0 C1.98 0 3.96 0 6 0 C6 1.32 6 2.64 6 4 C4.02 4 2.04 4 0 4 C0 2.68 0 1.36 0 0 Z " fill="#1D2439" transform="translate(91,76)"/>
<path d="M0 0 C0.99 0 1.98 0 3 0 C3 2.64 3 5.28 3 8 C2.01 8 1.02 8 0 8 C0 5.36 0 2.72 0 0 Z " fill="#0D2A77" transform="translate(54,135)"/>
<path d="M0 0 C0.33 0 0.66 0 1 0 C1.36552803 1.41377782 1.71695495 2.83120576 2.0625 4.25 C2.25972656 5.03890625 2.45695312 5.8278125 2.66015625 6.640625 C3.01497267 9.10394822 2.76877544 10.65604132 2 13 C0.66666667 11 -0.66666667 9 -2 7 C-1.67 6.01 -1.34 5.02 -1 4 C-0.65772583 2.66893378 -0.32248257 1.33599921 0 0 Z " fill="#0D2A7A" transform="translate(100,106)"/>
<path d="M0 0 C3 3 3 3 3.1875 6.1875 C3.125625 7.115625 3.06375 8.04375 3 9 C1.68 9 0.36 9 -1 9 C-0.67 6.03 -0.34 3.06 0 0 Z " fill="#1A2548" transform="translate(77,150)"/>
<path d="M0 0 C0.99 0 1.98 0 3 0 C3 2.31 3 4.62 3 7 C2.01 7 1.02 7 0 7 C0 4.69 0 2.38 0 0 Z " fill="#082980" transform="translate(54,125)"/>
<path d="M0 0 C1.98 0.495 1.98 0.495 4 1 C3.67 2.32 3.34 3.64 3 5 C1.68 4.67 0.36 4.34 -1 4 C-0.67 2.68 -0.34 1.36 0 0 Z " fill="#1E232F" transform="translate(85,62)"/>
<path d="M0 0 C0.99 0.33 1.98 0.66 3 1 C3 2.98 3 4.96 3 7 C2.01 7 1.02 7 0 7 C0 4.69 0 2.38 0 0 Z " fill="#0D2975" transform="translate(116,138)"/>
<path d="M0 0 C1.98 0 3.96 0 6 0 C6 2.31 6 4.62 6 7 C5.67 5.68 5.34 4.36 5 3 C2.03 2.505 2.03 2.505 -1 2 C-0.67 1.34 -0.34 0.68 0 0 Z " fill="#043094" transform="translate(118,122)"/>
<path d="M0 0 C1.9451 2.91765 2.45276317 4.62537285 3 8 C2.34 7.67 1.68 7.34 1 7 C0.34 7.66 -0.32 8.32 -1 9 C-1.33 7.35 -1.66 5.7 -2 4 C-1.34 4 -0.68 4 0 4 C0 2.68 0 1.36 0 0 Z " fill="#0D2975" transform="translate(101,139)"/>
<path d="M0 0 C0.99 0 1.98 0 3 0 C3 2.31 3 4.62 3 7 C1.35 6.67 -0.3 6.34 -2 6 C-1.34 4.02 -0.68 2.04 0 0 Z " fill="#0D2975" transform="translate(75,87)"/>
<path d="M0 0 C0.66 0 1.32 0 2 0 C2.33 1.65 2.66 3.3 3 5 C2.34 5 1.68 5 1 5 C0.67 5.66 0.34 6.32 0 7 C-0.38133299 5.0085944 -0.71325582 3.00720923 -1 1 C-0.67 0.67 -0.34 0.34 0 0 Z " fill="#1C253F" transform="translate(96,138)"/>
<path d="M0 0 C0.99 0 1.98 0 3 0 C3 1.98 3 3.96 3 6 C2.01 6 1.02 6 0 6 C0 4.02 0 2.04 0 0 Z " fill="#052986" transform="translate(115,129)"/>
<path d="M0 0 C2 0.6875 2 0.6875 4 2.6875 C2.02 3.0175 0.04 3.3475 -2 3.6875 C-2 3.0275 -2 2.3675 -2 1.6875 C-2.66 1.3575 -3.32 1.0275 -4 0.6875 C-2 -0.3125 -2 -0.3125 0 0 Z " fill="#0B2B7E" transform="translate(52,117.3125)"/>
<path d="M0 0 C0.33 0 0.66 0 1 0 C1.33 2.31 1.66 4.62 2 7 C1.01 7.66 0.02 8.32 -1 9 C-1.625 5.625 -1.625 5.625 -2 2 C-1.34 1.34 -0.68 0.68 0 0 Z " fill="#1B264A" transform="translate(99,116)"/>
</svg>
