<?xml version="1.0" encoding="UTF-8"?>
<svg version="1.1" xmlns="http://www.w3.org/2000/svg" width="156" height="155">
<path d="M0 0 C51.48 0 102.96 0 156 0 C156 51.15 156 102.3 156 155 C104.52 155 53.04 155 0 155 C0 103.85 0 52.7 0 0 Z " fill="#202020" transform="translate(0,0)"/>
<path d="M0 0 C6.88457641 1.27031539 10.70616645 9.03429682 14.52734375 14.43359375 C15.36072266 15.59955078 15.36072266 15.59955078 16.2109375 16.7890625 C20.44249583 22.71324416 20.44249583 22.71324416 22.4765625 25.65332031 C24.74667445 29.14605694 24.74667445 29.14605694 28.02734375 31.55859375 C28.02734375 30.23859375 28.02734375 28.91859375 28.02734375 27.55859375 C32.90234375 29.43359375 32.90234375 29.43359375 34.02734375 30.55859375 C34.13182771 32.01556446 34.21123043 33.47437835 34.27734375 34.93359375 C34.45566046 37.36779207 34.45566046 37.36779207 35.02734375 39.55859375 C37.36524446 41.51194557 37.36524446 41.51194557 40.02734375 42.55859375 C42.55509726 46.35022402 42.2517741 49.36733406 42.15234375 53.74609375 C42.14332031 54.49568359 42.13429688 55.24527344 42.125 56.01757812 C42.10146953 57.86472029 42.06559936 59.71169787 42.02734375 61.55859375 C43.51234375 62.05359375 43.51234375 62.05359375 45.02734375 62.55859375 C45.02734375 69.15859375 45.02734375 75.75859375 45.02734375 82.55859375 C44.03734375 83.05359375 44.03734375 83.05359375 43.02734375 83.55859375 C42.76179328 86.84762598 42.66072474 90.0947556 42.63671875 93.39257812 C42.46666727 98.50829342 41.5141951 101.57611972 38.02734375 105.55859375 C32.98440197 108.75614481 28.86454065 108.99916286 23.08789062 108.97851562 C22.2090773 108.98698517 21.33026398 108.99545471 20.42481995 109.00418091 C17.53176238 109.02750171 14.63923804 109.02857438 11.74609375 109.02734375 C9.7287983 109.0344473 7.71150488 109.04214658 5.69421387 109.05041504 C1.47105284 109.06384782 -2.75192127 109.06543355 -6.97509766 109.05957031 C-12.38240871 109.05366947 -17.78882338 109.08428761 -23.195961 109.12468719 C-27.36017678 109.15055374 -31.52417626 109.15344266 -35.6884613 109.14979553 C-37.68194332 109.15148715 -39.67543529 109.16113364 -41.6688385 109.17893982 C-44.45756882 109.20111343 -47.24447824 109.19143672 -50.03320312 109.17382812 C-50.85312241 109.18709137 -51.67304169 109.20035461 -52.51780701 109.21401978 C-56.64205923 109.15361205 -59.20585425 108.78065483 -62.46887207 106.1451416 C-66.2280024 102.26175159 -66.10971489 100.29441029 -66.16552734 94.96923828 C-66.17370483 94.29262146 -66.18188232 93.61600464 -66.19030762 92.91888428 C-66.21515113 90.67640062 -66.23167366 88.43398016 -66.24609375 86.19140625 C-66.25141743 85.42595364 -66.2567411 84.66050102 -66.2622261 83.87185287 C-66.28895154 79.82131705 -66.30832943 75.770812 -66.32275391 71.72021484 C-66.33941233 67.53448049 -66.3842006 63.34953191 -66.43512535 59.16409492 C-66.46876097 55.94704268 -66.48032709 52.73017795 -66.48598099 49.51296616 C-66.4927024 47.96994894 -66.5079478 46.42694444 -66.5318718 44.88409805 C-66.56345464 42.72432383 -66.56357241 40.56668229 -66.55615234 38.40673828 C-66.5642392 37.17811066 -66.57232605 35.94948303 -66.58065796 34.68362427 C-65.97265625 31.55859375 -65.97265625 31.55859375 -63.56729126 29.15719604 C-59.32497541 26.54342731 -55.57252201 26.95723349 -50.7265625 28.078125 C-49.85837891 28.31595703 -49.85837891 28.31595703 -48.97265625 28.55859375 C-48.49957031 27.90375 -48.02648437 27.24890625 -47.5390625 26.57421875 C-45.35763518 23.56359391 -43.16672074 20.56000959 -40.97265625 17.55859375 C-40.57208008 17.00864746 -40.17150391 16.45870117 -39.75878906 15.89208984 C-38.56454592 14.25612063 -37.36328113 12.62553844 -36.16015625 10.99609375 C-35.43183594 10.00480469 -34.70351563 9.01351563 -33.953125 7.9921875 C-31.97265625 5.55859375 -31.97265625 5.55859375 -28.97265625 3.55859375 C-24.55323946 3.68135533 -22.04253667 5.84327132 -18.81640625 8.59765625 C-16.95777977 9.7606558 -16.95777977 9.7606558 -14.53125 9.4609375 C-10.55580467 8.05891022 -8.2591429 5.23303186 -5.3515625 2.2734375 C-2.97265625 0.55859375 -2.97265625 0.55859375 0 0 Z " fill="#1F2126" transform="translate(87.97265625,6.44140625)"/>
<path d="M0 0 C12.59556218 0.06113765 25.1909159 0.13819058 37.78625202 0.23571491 C43.63442426 0.2804933 49.48252562 0.31973291 55.33081055 0.34643555 C60.97192467 0.37239403 66.61276713 0.41274336 72.25371361 0.46318626 C74.40870988 0.47990553 76.56375318 0.49138818 78.71880531 0.49761391 C81.73120409 0.50720003 84.74289986 0.5351933 87.75512695 0.56762695 C88.65136276 0.56619186 89.54759857 0.56475677 90.47099304 0.5632782 C91.29128998 0.57581635 92.11158691 0.58835449 92.95674133 0.60127258 C93.66928731 0.60588155 94.38183329 0.61049051 95.11597157 0.61523914 C97.59734898 1.12199206 98.49136524 1.99168103 100 4 C100.29296875 7.35546875 100.29296875 7.35546875 100.1875 11.1875 C100.14689453 13.09595703 100.14689453 13.09595703 100.10546875 15.04296875 C100.07066406 16.01878906 100.03585938 16.99460937 100 18 C99.21874756 17.99887207 98.43749512 17.99774414 97.63256836 17.99658203 C94.0666842 18.00874416 90.50291211 18.06646065 86.9375 18.125 C85.09381836 18.12113281 85.09381836 18.12113281 83.21289062 18.1171875 C76.56371716 18.2605659 72.01883083 18.55009994 67.11450195 23.27880859 C65.32686868 26.03955658 65.17916324 28.58836173 65.4296875 31.8125 C66.39737572 35.52418084 68.23789826 37.36942692 71 40 C73.73678725 41.36839363 76.04264424 41.21634818 79.1015625 41.31640625 C80.31328125 41.35830078 81.525 41.40019531 82.7734375 41.44335938 C84.04445313 41.48267578 85.31546875 41.52199219 86.625 41.5625 C87.90375 41.60568359 89.1825 41.64886719 90.5 41.69335938 C93.66655348 41.79969886 96.83318753 41.90172833 100 42 C100.054138 44.24973447 100.09285491 46.49984383 100.125 48.75 C100.14820312 50.00296875 100.17140625 51.2559375 100.1953125 52.546875 C100.01303811 55.76948618 99.83206418 57.40356467 98 60 C94.11612338 62.58925108 90.87409842 62.28804202 86.36938477 62.2746582 C85.48779694 62.27976913 84.60620911 62.28488007 83.69790649 62.29014587 C80.77900433 62.30406436 77.86033769 62.30308341 74.94140625 62.30078125 C72.91503308 62.30466693 70.88866072 62.30900133 68.86228943 62.31376648 C64.61283733 62.32123354 60.36346831 62.32093388 56.11401367 62.31567383 C50.66516677 62.30987848 45.2166597 62.3268095 39.767869 62.3500185 C35.58231107 62.36474171 31.39683526 62.36562947 27.21125603 62.36250877 C25.20218164 62.36302269 23.19310275 62.36827366 21.18405342 62.37832069 C18.37581346 62.39064038 15.56823887 62.38392029 12.76000977 62.37231445 C11.9281868 62.37995819 11.09636383 62.38760193 10.23933411 62.39547729 C6.87285214 62.36468441 4.4347644 62.23863306 1.45249939 60.60173035 C0 59 0 59 0 57 C1.16066986 57.00444122 2.32133972 57.00888245 3.5171814 57.01345825 C14.43592617 57.05393749 25.3546558 57.08395218 36.27345848 57.10362434 C41.8874155 57.11407784 47.50131212 57.12826553 53.11523438 57.15087891 C58.52926861 57.17255154 63.94324462 57.18455681 69.35731888 57.18975449 C71.4266616 57.1934603 73.49600101 57.20069644 75.56531906 57.21146011 C78.45556365 57.22590091 81.3455652 57.22798106 84.23583984 57.22705078 C85.09826797 57.23424133 85.96069611 57.24143188 86.84925842 57.24884033 C91.40091734 57.43939221 91.40091734 57.43939221 95 55 C95.46162427 52.56747339 95.46162427 52.56747339 95.625 49.875 C95.69976562 48.96492188 95.77453125 48.05484375 95.8515625 47.1171875 C95.92503906 46.06917969 95.92503906 46.06917969 96 45 C95.01 45 94.02 45 93 45 C93.02320312 45.62648437 93.04640625 46.25296875 93.0703125 46.8984375 C93.08835937 47.71570313 93.10640625 48.53296875 93.125 49.375 C93.14820312 50.18710938 93.17140625 50.99921875 93.1953125 51.8359375 C93 54 93 54 91 56 C88.17924741 56.19867212 85.45665907 56.27268925 82.63476562 56.25878906 C81.76961838 56.2622937 80.90447113 56.26579834 80.0131073 56.26940918 C77.14407402 56.27823507 74.27528593 56.27237433 71.40625 56.265625 C69.41849724 56.2669714 67.4307448 56.26891173 65.44299316 56.27142334 C61.27332428 56.27437577 57.10374098 56.27007315 52.93408203 56.26074219 C47.58035724 56.2493476 42.22683296 56.25590644 36.87311554 56.26788712 C32.76742025 56.27510251 28.66177276 56.27281926 24.55607605 56.26763153 C22.58163937 56.26629415 20.60719839 56.26794584 18.63276672 56.27259064 C15.87680509 56.27765061 13.12117148 56.26995313 10.36523438 56.25878906 C9.54335129 56.26283752 8.7214682 56.26688599 7.87467957 56.27105713 C2.22852806 56.22852806 2.22852806 56.22852806 0 54 C-0.24050903 51.97518921 -0.24050903 51.97518921 -0.22705078 49.45849609 C-0.22689972 48.51767181 -0.22674866 47.57684753 -0.22659302 46.60751343 C-0.21627045 45.58976837 -0.20594788 44.57202332 -0.1953125 43.5234375 C-0.1924826 42.48305328 -0.18965271 41.44266907 -0.18673706 40.37075806 C-0.17551704 37.03872306 -0.15040915 33.70695414 -0.125 30.375 C-0.11497256 28.11979554 -0.1058463 25.86458688 -0.09765625 23.609375 C-0.07557178 18.07282546 -0.04207639 12.53643173 0 7 C11.83036837 6.95373312 23.66071534 6.91815961 35.49115562 6.89637566 C40.98404503 6.88592237 46.4768727 6.87173507 51.96972656 6.84912109 C57.26705154 6.8274477 62.56431701 6.81544302 67.86168289 6.81024551 C69.88636843 6.80653984 71.91105059 6.79930396 73.93571091 6.78853989 C76.76369102 6.77409806 79.59142276 6.77201898 82.41943359 6.77294922 C83.26316025 6.76575867 84.1068869 6.75856812 84.97618103 6.75115967 C90.77189568 6.77189568 90.77189568 6.77189568 93 9 C93.125 12.125 93.125 12.125 93 15 C93.66 15 94.32 15 95 15 C94.7834375 13.0509375 94.7834375 13.0509375 94.5625 11.0625 C94.48128906 10.33160156 94.40007812 9.60070312 94.31640625 8.84765625 C94.18113386 6.98859771 94.18113386 6.98859771 93 6 C90.13987103 5.87474849 87.30271846 5.81390279 84.44116211 5.79467773 C83.54368759 5.78477814 82.64621307 5.77487854 81.72154236 5.76467896 C78.74017012 5.7329646 75.75878191 5.70826744 72.77734375 5.68359375 C70.71610589 5.66303279 68.65487234 5.64203656 66.59364319 5.62062073 C61.15700756 5.5653114 55.72033333 5.51594134 50.28363037 5.46777344 C44.74048408 5.41762294 39.19739414 5.36190328 33.65429688 5.30664062 C22.76957934 5.19895074 11.88481297 5.09752998 1 5 C0.67 3.35 0.34 1.7 0 0 Z " fill="#202023" transform="translate(26,49)"/>
<path d="M0 0 C0 0.99 0 1.98 0 3 C-1.11375 3.12375 -2.2275 3.2475 -3.375 3.375 C-7.03103677 3.6465813 -7.03103677 3.6465813 -9 6 C-8.59471099 8.78237655 -8.59471099 8.78237655 -7 11 C-4.20091293 11.1252097 -1.42529671 11.18608723 1.37524414 11.20532227 C2.25321152 11.21522186 3.13117889 11.22512146 4.03575134 11.23532104 C6.95219175 11.26703427 9.86864848 11.29173211 12.78515625 11.31640625 C14.80155371 11.33696731 16.81794677 11.35796354 18.83433533 11.37937927 C24.15260266 11.43468759 29.47090945 11.4840581 34.78924561 11.53222656 C40.21174651 11.5823778 45.63418982 11.63809707 51.05664062 11.69335938 C61.70437793 11.80104802 72.35216515 11.90246906 83 12 C83 12.99 83 13.98 83 15 C52.64 15 22.28 15 -9 15 C-8.67 16.32 -8.34 17.64 -8 19 C-6.27778732 19.01213028 -6.27778732 19.01213028 -4.52078247 19.02450562 C6.28034534 19.1018691 17.08134567 19.18958326 27.88230705 19.28752708 C33.4356726 19.33755009 38.98901857 19.38387945 44.54248047 19.421875 C49.89825363 19.45865212 55.25386527 19.50499109 60.60950089 19.55806351 C62.65647687 19.57664785 64.70348752 19.59174074 66.75051498 19.60334396 C69.60972514 19.62013751 72.46856209 19.64915532 75.32763672 19.68115234 C76.60725281 19.68439262 76.60725281 19.68439262 77.91271973 19.68769836 C83.77189568 19.77189568 83.77189568 19.77189568 86 22 C86.26991906 24.68839385 86.08737357 27.29141936 86 30 C85.34 30 84.68 30 84 30 C83.01 26.535 83.01 26.535 82 23 C51.97 22.67 21.94 22.34 -9 22 C-8.855625 29.734375 -8.71125 37.46875 -8.5625 45.4375 C-8.51939697 47.88212646 -8.47629395 50.32675293 -8.43188477 52.84545898 C-8.39377958 54.77067828 -8.35531198 56.69589046 -8.31640625 58.62109375 C-8.29993042 59.63079224 -8.28345459 60.64049072 -8.26647949 61.68078613 C-8.24629761 62.6348938 -8.22611572 63.58900146 -8.20532227 64.57202148 C-8.18977798 65.40475082 -8.1742337 66.23748016 -8.15821838 67.09544373 C-8.20571386 69.00966585 -8.20571386 69.00966585 -7 70 C-4.23598592 70.10050214 -1.49692774 70.13616075 1.26757812 70.12939453 C2.5674894 70.13202301 2.5674894 70.13202301 3.8936615 70.13470459 C6.77287773 70.13912425 9.65203309 70.13618472 12.53125 70.1328125 C14.52282727 70.13348551 16.51440446 70.1344555 18.50598145 70.13571167 C22.68579895 70.1371888 26.86559513 70.13503361 31.04541016 70.13037109 C36.41602526 70.1246738 41.7865904 70.12795273 47.15720367 70.13394356 C51.2714272 70.13754877 55.38563879 70.13641077 59.49986267 70.13381577 C61.48070786 70.13314639 63.46155412 70.1339753 65.44239807 70.13629532 C68.20576876 70.13882119 70.96905734 70.13498218 73.73242188 70.12939453 C74.55947128 70.13141876 75.38652069 70.13344299 76.2386322 70.13552856 C79.92056725 70.47318749 79.92056725 70.47318749 83 69 C83.23192865 67.48530552 83.41215238 65.96245438 83.5625 64.4375 C83.68818359 63.19806641 83.68818359 63.19806641 83.81640625 61.93359375 C83.87699219 61.29550781 83.93757813 60.65742187 84 60 C84.99 60 85.98 60 87 60 C87.08121924 61.60332791 87.13929134 63.20784026 87.1875 64.8125 C87.23970703 66.15248047 87.23970703 66.15248047 87.29296875 67.51953125 C86.93912866 70.51537733 86.31968828 71.15438644 84 73 C81.04177229 73.28593427 78.29573215 73.38901218 75.33764648 73.35644531 C74.01044586 73.35951187 74.01044586 73.35951187 72.65643311 73.36264038 C69.72777738 73.36565188 66.79968268 73.34716114 63.87109375 73.328125 C61.83993164 73.3250681 59.80876743 73.32319145 57.77760315 73.32244873 C53.51970404 73.31784344 49.26199381 73.303408 45.00415039 73.28125 C39.53727484 73.25294954 34.07054807 73.24203695 28.60360622 73.2375679 C24.40955609 73.23341772 20.21553625 73.22360389 16.02150154 73.21169281 C14.00520127 73.20598274 11.98889808 73.20122648 9.97259331 73.19742584 C7.15932941 73.19057601 4.34618494 73.17695007 1.53295898 73.16113281 C0.69394547 73.16001495 -0.14506805 73.15889709 -1.00950623 73.15774536 C-6.77061497 73.11469251 -6.77061497 73.11469251 -9 72 C-7.54422688 74.15238636 -7.54422688 74.15238636 -5 76 C-1.95748215 76.38422594 0.71958759 76.52691991 3.76000977 76.48583984 C4.64334991 76.48963654 5.52669006 76.49343323 6.4367981 76.49734497 C9.35536249 76.50475189 12.27293041 76.48336768 15.19140625 76.4609375 C17.21874372 76.45855326 19.24608343 76.45764771 21.27342224 76.4581604 C25.52120809 76.45503225 29.76865646 76.4384644 34.01635742 76.41162109 C39.46635544 76.37761969 44.91598291 76.36999312 50.36607456 76.37151146 C54.55160573 76.37096815 58.73705559 76.36000753 62.92255974 76.34550858 C64.93244753 76.33913634 66.94234455 76.33520069 68.9522419 76.33372116 C71.75811654 76.32939392 74.56359499 76.31190595 77.36938477 76.29052734 C78.62015556 76.2918869 78.62015556 76.2918869 79.89619446 76.29327393 C83.77837975 76.24993157 85.69569922 76.20286719 89 74 C89.99 72.515 89.99 72.515 91 71 C92.485 71.495 92.485 71.495 94 72 C93.07293032 75.70827871 92.14611392 76.8966712 88.97596741 79.13853455 C84.65503976 81.47250559 80.77902059 81.57207536 75.94702148 81.53344727 C75.06806213 81.54206284 74.18910278 81.55067841 73.2835083 81.55955505 C70.39573208 81.58214571 67.50893152 81.57549011 64.62109375 81.56640625 C62.60522678 81.57164408 60.58936226 81.57792114 58.57350159 81.58518982 C54.35625646 81.59558066 50.13934906 81.59105016 45.92211914 81.57641602 C40.52264681 81.55921117 35.12423693 81.58275165 29.72488308 81.61790562 C25.56493605 81.63988048 21.40524336 81.63843821 17.24525642 81.6301403 C15.25457657 81.62932121 13.26387797 81.63617665 11.27325249 81.65091133 C8.48936709 81.66836329 5.70739303 81.65381081 2.92358398 81.63110352 C1.69606163 81.64864182 1.69606163 81.64864182 0.44374084 81.66653442 C-5.37475384 81.57014127 -7.94032413 80.19060204 -12 76 C-13.43780086 73.12439829 -13.15918866 70.62434984 -13.19287109 67.41064453 C-13.20104858 66.73402771 -13.20922607 66.05741089 -13.21765137 65.36029053 C-13.24249488 63.11780687 -13.25901741 60.87538641 -13.2734375 58.6328125 C-13.27876118 57.86735989 -13.28408485 57.10190727 -13.28956985 56.31325912 C-13.31629529 52.2627233 -13.33567318 48.21221825 -13.35009766 44.16162109 C-13.36675608 39.97588674 -13.41154435 35.79093816 -13.4624691 31.60550117 C-13.49610472 28.38844893 -13.50767084 25.1715842 -13.51332474 21.95437241 C-13.52004615 20.41135519 -13.53529155 18.86835069 -13.55921555 17.3255043 C-13.59079839 15.16573008 -13.59091616 13.00808854 -13.58349609 10.84814453 C-13.59158295 9.61951691 -13.5996698 8.39088928 -13.60800171 7.12503052 C-13 4 -13 4 -10.60342407 1.59640503 C-6.75914456 -0.76088559 -4.4212278 -0.29974426 0 0 Z " fill="#052B8A" transform="translate(35,34)"/>
<path d="M0 0 C4.875 1.875 4.875 1.875 6 3 C6.10448396 4.45697071 6.18388668 5.9157846 6.25 7.375 C6.42831671 9.80919832 6.42831671 9.80919832 7 12 C9.33790071 13.95335182 9.33790071 13.95335182 12 15 C14.52775351 18.79163027 14.22443035 21.80874031 14.125 26.1875 C14.11597656 26.93708984 14.10695313 27.68667969 14.09765625 28.45898438 C14.07412578 30.30612654 14.03825561 32.15310412 14 34 C15.485 34.495 15.485 34.495 17 35 C17 41.6 17 48.2 17 55 C16.01 55.495 16.01 55.495 15 56 C14.68758545 58.71446979 14.48663408 61.33909361 14.375 64.0625 C14.33632812 64.82111328 14.29765625 65.57972656 14.2578125 66.36132812 C14.16326438 68.24047195 14.08053244 70.12020336 14 72 C12.68 72.33 11.36 72.66 10 73 C10 67.72 10 62.44 10 57 C7.19822266 57.10441406 7.19822266 57.10441406 4.33984375 57.2109375 C1.87243189 57.26722826 -0.59501898 57.32182699 -3.0625 57.375 C-4.29162109 57.42527344 -5.52074219 57.47554687 -6.78710938 57.52734375 C-17.03694554 57.69310929 -17.03694554 57.69310929 -21.30859375 54.1015625 C-24.13511585 51.17591878 -25.23395394 48.87388848 -25.5625 44.8125 C-25.43882681 40.85537559 -24.690689 38.98510471 -21.83984375 36.2265625 C-16.12177013 31.53036684 -10.06819426 32.22289827 -3 32.5625 C-1.74832031 32.59408203 -0.49664062 32.62566406 0.79296875 32.65820312 C3.86443499 32.7402652 6.93096763 32.85502391 10 33 C9.88628503 30.70774565 9.75869036 28.41617612 9.625 26.125 C9.52058594 24.21074219 9.52058594 24.21074219 9.4140625 22.2578125 C9.32758894 18.91938301 9.32758894 18.91938301 7 17 C4.04910791 16.7820973 1.18935063 16.68855022 -1.76416016 16.68115234 C-3.12522133 16.66608391 -3.12522133 16.66608391 -4.51377869 16.65071106 C-7.52219999 16.61974419 -10.53053178 16.60280652 -13.5390625 16.5859375 C-15.62129494 16.56723671 -17.70351972 16.54766413 -19.78573608 16.5272522 C-25.27331027 16.47580996 -30.76090905 16.43624908 -36.24859619 16.39910889 C-41.84548082 16.35914487 -47.44226203 16.30801795 -53.0390625 16.2578125 C-64.02596915 16.16091012 -75.01293403 16.0765513 -86 16 C-86 15.67 -86 15.34 -86 15 C-56.96 15 -27.92 15 2 15 C2 14.01 2 13.02 2 12 C-27.7 12 -57.4 12 -88 12 C-88 11.67 -88 11.34 -88 11 C-57.97 11 -27.94 11 3 11 C2.34 8.69 1.68 6.38 1 4 C0.65864073 2.66869885 0.32074044 1.33641852 0 0 Z " fill="#033092" transform="translate(116,34)"/>
<path d="M0 0 C6.82611947 1.25952914 10.60965655 8.89066609 14.40234375 14.24609375 C14.97235107 15.04466797 15.5423584 15.84324219 16.12963867 16.66601562 C17.25539587 18.24505806 18.37908014 19.82558082 19.50048828 21.40771484 C20.80216103 23.24137921 22.11270641 25.06795069 23.4296875 26.890625 C24.06003906 27.77105469 24.69039063 28.65148437 25.33984375 29.55859375 C25.87222656 30.30109375 26.40460938 31.04359375 26.953125 31.80859375 C28.02734375 33.55859375 28.02734375 33.55859375 28.02734375 35.55859375 C25.38734375 35.55859375 22.74734375 35.55859375 20.02734375 35.55859375 C19.94613281 34.5221875 19.86492187 33.48578125 19.78125 32.41796875 C18.94102351 28.11670568 17.68958877 26.19232513 14.96484375 22.80859375 C14.16046875 21.78765625 13.35609375 20.76671875 12.52734375 19.71484375 C12.11355469 19.19664063 11.69976562 18.6784375 11.2734375 18.14453125 C9.26255844 15.58523063 7.36950019 12.94790339 5.46484375 10.30859375 C4.80355469 9.3959375 4.14226562 8.48328125 3.4609375 7.54296875 C2.98785156 6.888125 2.51476562 6.23328125 2.02734375 5.55859375 C-2.78911531 6.01149768 -4.9753821 8.01510818 -8.41015625 11.30859375 C-9.36664063 12.20835938 -10.323125 13.108125 -11.30859375 14.03515625 C-12.18773437 14.86789063 -13.066875 15.700625 -13.97265625 16.55859375 C-19.54534347 21.55859375 -19.54534347 21.55859375 -21.97265625 21.55859375 C-21.97265625 22.21859375 -21.97265625 22.87859375 -21.97265625 23.55859375 C-24.25017813 25.48934456 -26.53493688 27.31832764 -28.91015625 29.12109375 C-30.21122913 30.12201687 -31.51202471 31.12330057 -32.8125 32.125 C-34.37677734 33.32962891 -34.37677734 33.32962891 -35.97265625 34.55859375 C-36.30265625 34.88859375 -36.63265625 35.21859375 -36.97265625 35.55859375 C-38.97223989 35.59940158 -40.97310879 35.60113731 -42.97265625 35.55859375 C-36.5656677 29.07065047 -29.82637842 22.92706467 -22.84765625 17.05859375 C-19.97540736 14.88200236 -19.97540736 14.88200236 -18.97265625 12.55859375 C-21.91088821 11.03506607 -24.89519717 9.77324592 -27.97265625 8.55859375 C-31.88003866 13.23596035 -35.59950345 17.95041677 -39 23.0078125 C-39.52239258 23.77810791 -40.04478516 24.54840332 -40.58300781 25.34204102 C-41.6266716 26.89154246 -42.6562726 28.45061785 -43.67089844 30.01928711 C-45.01731723 32.00916884 -46.28786986 33.84519227 -47.97265625 35.55859375 C-50.8359375 36.05078125 -50.8359375 36.05078125 -52.97265625 35.55859375 C-51.52106666 31.25141807 -49.21816717 28.00490921 -46.41015625 24.49609375 C-45.51085154 23.35354664 -44.61243472 22.21030017 -43.71484375 21.06640625 C-43.25948242 20.48793945 -42.80412109 19.90947266 -42.33496094 19.31347656 C-41.00321114 17.5979537 -39.70475842 15.86271436 -38.41796875 14.11328125 C-38.01650635 13.56808838 -37.61504395 13.02289551 -37.20141602 12.46118164 C-36.09287732 10.94979112 -34.98775009 9.43590019 -33.8828125 7.921875 C-31.97265625 5.55859375 -31.97265625 5.55859375 -28.97265625 3.55859375 C-24.55323946 3.68135533 -22.04253667 5.84327132 -18.81640625 8.59765625 C-16.95777977 9.7606558 -16.95777977 9.7606558 -14.53125 9.4609375 C-10.55580467 8.05891022 -8.2591429 5.23303186 -5.3515625 2.2734375 C-2.97265625 0.55859375 -2.97265625 0.55859375 0 0 Z " fill="#062D8A" transform="translate(87.97265625,6.44140625)"/>
<path d="M0 0 C1.0236264 0.00848969 1.0236264 0.00848969 2.06793213 0.01715088 C4.23872262 0.03946864 6.40783706 0.08964992 8.578125 0.140625 C10.0533615 0.16069624 11.52862399 0.17894593 13.00390625 0.1953125 C16.61252001 0.2393162 20.22015881 0.30830917 23.828125 0.390625 C23.85497595 2.86986301 23.87489047 5.3488134 23.890625 7.828125 C23.89900391 8.53517578 23.90738281 9.24222656 23.91601562 9.97070312 C23.92466088 11.77756059 23.88032511 13.58450103 23.828125 15.390625 C21.19628494 18.02246506 13.91971749 16.70858666 10.1550293 16.74072266 C8.73396405 16.75726364 7.31298137 16.78453021 5.89233398 16.82275391 C3.84314859 16.87761511 1.79591526 16.89940803 -0.25390625 16.9140625 C-1.48343018 16.93388184 -2.7129541 16.95370117 -3.97973633 16.97412109 C-7.171875 16.390625 -7.171875 16.390625 -9.57299805 14.08056641 C-11.66777 10.5563341 -11.7588135 8.42582718 -11.171875 4.390625 C-7.97130203 -0.03805185 -5.2804397 -0.08656459 0 0 Z " fill="#1F2126" transform="translate(106.171875,70.609375)"/>
<path d="M0 0 C1.32 0.33 2.64 0.66 4 1 C3.11549903 3.97513963 2.40941369 5.66698551 -0.02445984 7.64668274 C-4.07774726 9.49017452 -7.51969883 9.39757087 -11.92114258 9.34057617 C-12.80944763 9.34101425 -13.69775269 9.34145233 -14.61297607 9.34190369 C-17.54038703 9.33981865 -20.46722071 9.31650091 -23.39453125 9.29296875 C-25.42762438 9.28737179 -27.46072156 9.28310216 -29.49382019 9.28010559 C-34.83848286 9.26866475 -40.1829 9.23920396 -45.52746582 9.20599365 C-50.98377155 9.17527646 -56.44011705 9.16159672 -61.89648438 9.14648438 C-72.59776398 9.11433367 -83.29886155 9.06314637 -94 9 C-94.33 8.01 -94.66 7.02 -95 6 C-93.29991035 5.98786972 -93.29991035 5.98786972 -91.56547546 5.97549438 C-80.89710374 5.89809224 -70.22886049 5.81036805 -59.56065655 5.71247292 C-54.07570118 5.66247459 -48.59076541 5.61614486 -43.10571289 5.578125 C-37.81477299 5.5413169 -32.52399564 5.49496916 -27.23319435 5.44193649 C-25.21216488 5.42336872 -23.19110054 5.40826963 -21.17001915 5.39665604 C-18.34453981 5.37983435 -15.51943468 5.35080927 -12.6940918 5.31884766 C-11.85396042 5.31668747 -11.01382904 5.31452728 -10.14823914 5.31230164 C-6.25849656 5.25589426 -4.30969135 5.2064609 -1 3 C-0.67 2.01 -0.34 1.02 0 0 Z " fill="#032E8E" transform="translate(125,105)"/>
<path d="M0 0 C4.875 1.875 4.875 1.875 6 3 C6.10448396 4.45697071 6.18388668 5.9157846 6.25 7.375 C6.42831671 9.80919832 6.42831671 9.80919832 7 12 C9.33790071 13.95335182 9.33790071 13.95335182 12 15 C14.45391569 18.68087353 14.22802759 21.44355588 14.125 25.6875 C14.11597656 26.38939453 14.10695313 27.09128906 14.09765625 27.81445312 C14.07413704 29.54311525 14.03826713 31.27160145 14 33 C13.67 33 13.34 33 13 33 C12.505 27.06 12.505 27.06 12 21 C11.67 24.96 11.34 28.92 11 33 C10.67 33 10.34 33 10 33 C9.95101562 32.01257813 9.90203125 31.02515625 9.8515625 30.0078125 C9.73941406 28.08582031 9.73941406 28.08582031 9.625 26.125 C9.52058594 24.21074219 9.52058594 24.21074219 9.4140625 22.2578125 C9.32758894 18.91938301 9.32758894 18.91938301 7 17 C4.04910791 16.7820973 1.18935063 16.68855022 -1.76416016 16.68115234 C-3.12522133 16.66608391 -3.12522133 16.66608391 -4.51377869 16.65071106 C-7.52219999 16.61974419 -10.53053178 16.60280652 -13.5390625 16.5859375 C-15.62129494 16.56723671 -17.70351972 16.54766413 -19.78573608 16.5272522 C-25.27331027 16.47580996 -30.76090905 16.43624908 -36.24859619 16.39910889 C-41.84548082 16.35914487 -47.44226203 16.30801795 -53.0390625 16.2578125 C-64.02596915 16.16091012 -75.01293403 16.0765513 -86 16 C-86 15.67 -86 15.34 -86 15 C-56.96 15 -27.92 15 2 15 C2 14.01 2 13.02 2 12 C-27.7 12 -57.4 12 -88 12 C-88 11.67 -88 11.34 -88 11 C-57.97 11 -27.94 11 3 11 C2.34 8.69 1.68 6.38 1 4 C0.65864073 2.66869885 0.32074044 1.33641852 0 0 Z " fill="#182C6D" transform="translate(116,34)"/>
<path d="M0 0 C1.25167969 0.03158203 2.50335938 0.06316406 3.79296875 0.09570312 C6.86443499 0.1777652 9.93096763 0.29252391 13 0.4375 C13 0.7675 13 1.0975 13 1.4375 C0.625 1.9325 0.625 1.9325 -12 2.4375 C1.86 2.9325 1.86 2.9325 16 3.4375 C16 3.7675 16 4.0975 16 4.4375 C14.66038208 4.45937378 14.66038208 4.45937378 13.29370117 4.48168945 C9.97782722 4.54277077 6.66278101 4.61692478 3.34741211 4.69995117 C1.91295372 4.73319001 0.47836487 4.76122535 -0.95629883 4.78393555 C-3.01960807 4.81750271 -5.08172303 4.86981413 -7.14453125 4.92578125 C-9.00621948 4.96505737 -9.00621948 4.96505737 -10.90551758 5.00512695 C-13.95394702 5.19475772 -13.95394702 5.19475772 -15.9050293 6.75463867 C-17.76926001 9.61977631 -17.34787956 12.1326442 -17 15.4375 C-15.98818275 17.72897138 -15.98818275 17.72897138 -14 19.4375 C-10.90989264 20.082869 -10.90989264 20.082869 -7.36328125 20.046875 C-5.41518555 20.09521484 -5.41518555 20.09521484 -3.42773438 20.14453125 C-2.05599405 20.15927586 -0.68424907 20.17359331 0.6875 20.1875 C2.07100111 20.21565875 3.45446744 20.24558608 4.83789062 20.27734375 C8.22532021 20.34816109 11.61205667 20.40080176 15 20.4375 C15 20.7675 15 21.0975 15 21.4375 C6.42 21.4375 -2.16 21.4375 -11 21.4375 C-11 22.0975 -11 22.7575 -11 23.4375 C-2.75 23.4375 5.5 23.4375 14 23.4375 C14 28.3875 14 33.3375 14 38.4375 C13.67 38.4375 13.34 38.4375 13 38.4375 C13 33.8175 13 29.1975 13 24.4375 C10.19822266 24.54191406 10.19822266 24.54191406 7.33984375 24.6484375 C4.87243189 24.70472826 2.40498102 24.75932699 -0.0625 24.8125 C-1.29162109 24.86277344 -2.52074219 24.91304687 -3.78710938 24.96484375 C-14.03694554 25.13060929 -14.03694554 25.13060929 -18.30859375 21.5390625 C-21.13511585 18.61341878 -22.23395394 16.31138848 -22.5625 12.25 C-22.43882681 8.29287559 -21.690689 6.42260471 -18.83984375 3.6640625 C-13.12177013 -1.03213316 -7.06819426 -0.33960173 0 0 Z " fill="#0B297F" transform="translate(113,66.5625)"/>
<path d="M0 0 C4.81217445 2.58693692 7.95345983 6.13747265 10 11.1875 C11 15 11 15 11 19 C9.68 19 8.36 19 7 19 C6.938125 17.783125 6.87625 16.56625 6.8125 15.3125 C6.26267456 10.81030617 4.54978448 8.87363506 1 6 C-2.75607573 3.49594951 -5.65667166 3.15567523 -10 4 C-16.57044868 7.15910056 -22.01258669 12.44974785 -27.421875 17.2421875 C-30.27591649 19.18812488 -31.62473491 19.40066096 -35 19 C-31.07376685 14.90733692 -26.87320362 11.34099973 -22.4375 7.8125 C-21.77814453 7.27947266 -21.11878906 6.74644531 -20.43945312 6.19726562 C-19.79814453 5.68486328 -19.15683594 5.17246094 -18.49609375 4.64453125 C-17.92044678 4.18409424 -17.3447998 3.72365723 -16.75170898 3.24926758 C-11.46195328 -0.52323137 -6.36984349 -1.1349583 0 0 Z " fill="#072D8A" transform="translate(91,23)"/>
<path d="M0 0 C30.36 0.33 60.72 0.66 92 1 C92 1.33 92 1.66 92 2 C62.96 2 33.92 2 4 2 C4 2.66 4 3.32 4 4 C2.68 3.34 1.36 2.68 0 2 C0 1.34 0 0.68 0 0 Z " fill="#1D1F30" transform="translate(26,106)"/>
<path d="M0 0 C3.0625 0.3125 3.0625 0.3125 5 1.5 C6.0625 3.3125 6.0625 3.3125 5.8125 5.9375 C5.0625 8.3125 5.0625 8.3125 4.0625 9.3125 C0.625 9.5 0.625 9.5 -2.9375 9.3125 C-4.9375 7.3125 -4.9375 7.3125 -5.1875 4.8125 C-4.80834721 1.0209721 -3.71668962 0.39539251 0 0 Z " fill="#052E8C" transform="translate(84.9375,32.6875)"/>
<path d="M0 0 C2.4375 0.1875 2.4375 0.1875 3.4375 1.1875 C3.5625 4.1875 3.5625 4.1875 3.4375 7.1875 C2.4375 8.1875 2.4375 8.1875 -0.5625 8.3125 C-3.5625 8.1875 -3.5625 8.1875 -4.5625 7.1875 C-4.75 4.75 -4.75 4.75 -4.5625 2.1875 C-2.5625 0.1875 -2.5625 0.1875 0 0 Z " fill="#052E8D" transform="translate(103.5625,74.8125)"/>
<path d="M0 0 C0.99 0 1.98 0 3 0 C3.08090971 1.62418745 3.13914995 3.24951745 3.1875 4.875 C3.22230469 5.77992187 3.25710937 6.68484375 3.29296875 7.6171875 C3.19628906 8.40351562 3.09960938 9.18984375 3 10 C2.01 10.66 1.02 11.32 0 12 C-0.66 11.34 -1.32 10.68 -2 10 C-1.67 9.67 -1.34 9.34 -1 9 C-0.76807135 7.48530552 -0.58784762 5.96245438 -0.4375 4.4375 C-0.35371094 3.61121094 -0.26992187 2.78492187 -0.18359375 1.93359375 C-0.12300781 1.29550781 -0.06242187 0.65742187 0 0 Z " fill="#0F2A77" transform="translate(119,94)"/>
<path d="M0 0 C1.45792884 -0.05399736 2.91642712 -0.09279177 4.375 -0.125 C5.18710938 -0.14820313 5.99921875 -0.17140625 6.8359375 -0.1953125 C9 0 9 0 11 2 C11.26991906 4.68839385 11.08737357 7.29141936 11 10 C10.34 10 9.68 10 9 10 C8.34 7.03 7.68 4.06 7 1 C4.69 1 2.38 1 0 1 C0 0.67 0 0.34 0 0 Z " fill="#092B85" transform="translate(110,54)"/>
<path d="M0 0 C1.76462683 3.08809695 2 4.23312136 2 8 C0.68 8 -0.64 8 -2 8 C-2.125 5.125 -2.125 5.125 -2 2 C-1.34 1.34 -0.68 0.68 0 0 Z " fill="#0D2A78" transform="translate(100,34)"/>
</svg>
